<?xml version="1.0" encoding="UTF-8"?>
<svg xmlns="http://www.w3.org/2000/svg" xmlns:xlink="http://www.w3.org/1999/xlink" viewBox="0 0 48 48" width="48px" height="48px">
<g id="surface75037406">
<path style="fill-rule:nonzero;fill:rgb(1.176471%,66.274512%,95.686275%);fill-opacity:1;stroke-width:10;stroke-linecap:butt;stroke-linejoin:round;stroke:rgb(0%,0%,0%);stroke-opacity:1;stroke-miterlimit:10;" d="M 150.506518 44.541047 C 146.966436 49.828952 142.478382 54.450315 137.294162 58.123705 C 137.338598 59.249422 137.383034 60.375138 137.383034 61.515667 C 137.383034 96.190697 110.750952 136.168445 62.063713 136.168445 C 47.133157 136.168445 33.209822 131.8137 21.493483 124.392858 C 23.567171 124.644663 25.655671 124.76316 27.80342 124.76316 C 40.201114 124.76316 51.621211 120.556535 60.671379 113.535619 C 49.088349 113.313438 39.327202 105.714851 35.950053 95.316786 C 37.564567 95.598215 39.23833 95.790772 40.941717 95.790772 C 43.356082 95.790772 45.681576 95.464906 47.903384 94.857612 C 35.801932 92.443246 26.677704 81.852624 26.677704 69.129065 C 26.677704 69.010569 26.677704 68.892072 26.677704 68.818012 C 30.24741 70.74358 34.335538 71.958169 38.675472 72.091477 C 31.565683 67.36643 26.899884 59.353106 26.899884 50.24369 C 26.899884 45.459395 28.188534 40.912092 30.484403 37.031333 C 43.533827 52.90986 63.041309 63.367174 85.037217 64.463267 C 84.592855 62.522887 84.34105 60.523259 84.34105 58.479195 C 84.34105 43.993001 96.205509 32.247038 110.825012 32.247038 C 118.423598 32.247038 125.296394 35.416818 130.110313 40.526979 C 136.138821 39.356826 141.81184 37.164641 146.936812 34.157793 C 144.951996 40.275174 140.745371 45.459395 135.279722 48.703236 C 140.656499 48.036693 145.751847 46.644359 150.506518 44.541047 " transform="matrix(0.263721,0,0,0.263721,1.32,1.32)"/>
<path style=" stroke:none;fill-rule:nonzero;fill:rgb(1.176471%,66.274512%,95.686275%);fill-opacity:1;" d="M 41.011719 13.066406 C 39.757812 13.621094 38.414062 13.988281 36.996094 14.164062 C 38.4375 13.308594 39.546875 11.941406 40.070312 10.328125 C 38.71875 11.121094 37.222656 11.699219 35.632812 12.007812 C 34.363281 10.660156 32.550781 9.824219 30.546875 9.824219 C 26.691406 9.824219 23.5625 12.921875 23.5625 16.742188 C 23.5625 17.28125 23.628906 17.808594 23.746094 18.320312 C 17.945312 18.03125 12.800781 15.273438 9.359375 11.085938 C 8.753906 12.109375 8.414062 13.308594 8.414062 14.570312 C 8.414062 16.972656 9.644531 19.085938 11.519531 20.332031 C 10.375 20.296875 9.296875 19.976562 8.355469 19.46875 C 8.355469 19.488281 8.355469 19.519531 8.355469 19.550781 C 8.355469 22.90625 10.761719 25.699219 13.953125 26.335938 C 13.367188 26.496094 12.753906 26.582031 12.117188 26.582031 C 11.667969 26.582031 11.226562 26.53125 10.800781 26.457031 C 11.691406 29.199219 14.265625 31.203125 17.320312 31.261719 C 14.933594 33.113281 11.921875 34.222656 8.652344 34.222656 C 8.085938 34.222656 7.535156 34.191406 6.988281 34.125 C 10.078125 36.082031 13.75 37.230469 17.6875 37.230469 C 30.527344 37.230469 37.550781 26.6875 37.550781 17.542969 C 37.550781 17.242188 37.539062 16.945312 37.527344 16.648438 C 38.894531 15.679688 40.078125 14.460938 41.011719 13.066406 "/>
</g>
</svg>
